# xmcd
#
# Track frame offsets: 
#        150
#        15916
#        36564
#        53240
#        65984
#        79442
#        87877
#        101758
#        114291
#        135186
#        150867
#        177285
#        188449
#        204728
#        216084
#        231394
#        248564
#        260766
#
# Disc length: 3695 seconds
#
# Revision: 0
# Processed by: cddbd v1.5.2PL0 Copyright (c) Steve Scherf et al.
# Submitted via: ExactAudioCopyFreeDBPlugin 1.0
#
DISCID=f20e6d12
DTITLE=Cuby and The Blizzards - 50 Jaar Nederpop Hits - Classic Bands
DYEAR=2008
DGENRE=Blues
TTITLE0=L.S.D. (Got A Million Dollars)
TTITLE1=Back Home
TTITLE2=You Don't Know
TTITLE3=Just For Fun
TTITLE4=Desolation Blues
TTITLE5=Another Day Another Road
TTITLE6=Distant Smile
TTITLE7=The Sunshine Of Your Shadow
TTITLE8=Another Land
TTITLE9=Window Of My Eyes
TTITLE10=The Sky Is Crying
TTITLE11=Going Home
TTITLE12=Nostalgic Toilet
TTITLE13=Appleknockers Flophouse
TTITLE14=Thursday Night
TTITLE15=Backstreet
TTITLE16=Pawn Broker
TTITLE17=Sometimes
EXTD=
EXTT0=
EXTT1=
EXTT2=
EXTT3=
EXTT4=
EXTT5=
EXTT6=
EXTT7=
EXTT8=
EXTT9=
EXTT10=
EXTT11=
EXTT12=
EXTT13=
EXTT14=
EXTT15=
EXTT16=
EXTT17=
PLAYORDER=
